<svg xmlns="http://www.w3.org/2000/svg" viewBox="0 0 720 900" role="img" aria-label="Abstract cricket player silhouette">
  <defs>
    <linearGradient id="card" x1="0" x2="1" y1="0" y2="1">
      <stop offset="0" stop-color="#f5c84b"/>
      <stop offset=".52" stop-color="#287d75"/>
      <stop offset="1" stop-color="#111821"/>
    </linearGradient>
    <radialGradient id="halo" cx="42%" cy="30%" r="60%">
      <stop offset="0" stop-color="#fff3a2" stop-opacity=".92"/>
      <stop offset=".4" stop-color="#f5c84b" stop-opacity=".28"/>
      <stop offset="1" stop-color="#f5c84b" stop-opacity="0"/>
    </radialGradient>
  </defs>
  <rect width="720" height="900" rx="38" fill="#111821"/>
  <rect width="720" height="900" rx="38" fill="url(#card)" opacity=".44"/>
  <circle cx="310" cy="245" r="230" fill="url(#halo)"/>
  <path d="M406 180c35 44 43 95 21 139-19 39-53 58-95 58-47 0-84-24-103-66-21-48-10-104 28-144 40-43 112-36 149 13z" fill="#05080b" opacity=".82"/>
  <path d="M210 805c8-136 25-247 62-333 24-57 76-91 137-91 83 0 133 45 157 136 25 95 38 190 42 288z" fill="#05080b" opacity=".86"/>
  <path d="M118 314c126 29 204 76 248 141" stroke="#05080b" stroke-width="48" stroke-linecap="round" opacity=".86"/>
  <path d="M505 370l110-192" stroke="#05080b" stroke-width="30" stroke-linecap="round" opacity=".86"/>
  <path d="M578 130l68-116" stroke="#f5c84b" stroke-width="22" stroke-linecap="round"/>
  <path d="M80 785h560" stroke="#f7f2e8" stroke-width="2" opacity=".24"/>
</svg>
